<svg width="19" height="17" viewBox="0 0 19 17" fill="none" xmlns="http://www.w3.org/2000/svg">
<path d="M17.4062 0.59375H1.59375C1.2125 0.59375 0.846867 0.7452 0.577284 1.01478C0.3077 1.28437 0.15625 1.65 0.15625 2.03125V14.9688C0.15625 15.35 0.3077 15.7156 0.577284 15.9852C0.846867 16.2548 1.2125 16.4062 1.59375 16.4062H17.4062C17.7875 16.4062 18.1531 16.2548 18.4227 15.9852C18.6923 15.7156 18.8438 15.35 18.8438 14.9688V2.03125C18.8438 1.65 18.6923 1.28437 18.4227 1.01478C18.1531 0.7452 17.7875 0.59375 17.4062 0.59375ZM9.5 9.21875C8.35662 9.21756 7.26041 8.76283 6.45192 7.95433C5.64342 7.14584 5.18869 6.04963 5.1875 4.90625C5.1875 4.71563 5.26323 4.53281 5.39802 4.39802C5.53281 4.26323 5.71563 4.1875 5.90625 4.1875C6.09687 4.1875 6.27969 4.26323 6.41448 4.39802C6.54927 4.53281 6.625 4.71563 6.625 4.90625C6.625 5.66875 6.9279 6.40001 7.46707 6.93918C8.00624 7.47835 8.7375 7.78125 9.5 7.78125C10.2625 7.78125 10.9938 7.47835 11.5329 6.93918C12.0721 6.40001 12.375 5.66875 12.375 4.90625C12.375 4.71563 12.4507 4.53281 12.5855 4.39802C12.7203 4.26323 12.9031 4.1875 13.0938 4.1875C13.2844 4.1875 13.4672 4.26323 13.602 4.39802C13.7368 4.53281 13.8125 4.71563 13.8125 4.90625C13.8113 6.04963 13.3566 7.14584 12.5481 7.95433C11.7396 8.76283 10.6434 9.21756 9.5 9.21875Z" fill="#A4074D"/>
</svg>
